Coordinates
version=1
nRows=7
nColumns=40
inDegrees=yes

Units are S.I. units (second, meters, Newtons, ...)
If the header above contains a line with 'inDegrees', this indicates whether rotational values are in degrees (yes) or radians (no).

endheader
time	pelvis_tilt	pelvis_list	pelvis_rotation	pelvis_tx	pelvis_ty	pelvis_tz	hip_flexion_r	hip_adduction_r	hip_rotation_r	knee_angle_r	knee_angle_r_beta	ankle_angle_r	subtalar_angle_r	mtp_angle_r	hip_flexion_l	hip_adduction_l	hip_rotation_l	knee_angle_l	knee_angle_l_beta	ankle_angle_l	subtalar_angle_l	mtp_angle_l	lumbar_extension	lumbar_bending	lumbar_rotation	arm_flex_r	arm_add_r	arm_rot_r	elbow_flex_r	pro_sup_r	wrist_flex_r	wrist_dev_r	arm_flex_l	arm_add_l	arm_rot_l	elbow_flex_l	pro_sup_l	wrist_flex_l	wrist_dev_l
      0.72000000	     -2.42945398	      6.35140567	    -85.86328876	      0.21202563	      0.93308318	     -0.91113928	     17.50398677	      5.51410948	     -8.45241978	     15.25567651	      0.26626178	      2.06929888	      0.00000000	      0.00000000	     20.18290201	     -5.30582973	      2.37170452	     59.94859627	      1.04630039	     -2.38126575	      0.00000000	      0.00000000	      2.62237687	      2.89818896	     -4.81781839	      0.00000000	      0.00000000	      0.00000000	      0.00000000	      0.00000000	      0.00000000	      0.00000000	      0.00000000	      0.00000000	      0.00000000	      0.00000000	      0.00000000	      0.00000000	      0.00000000
      0.73000000	     -2.29056259	      6.43628450	    -86.04335130	      0.21177189	      0.93386276	     -0.90428650	     16.95702134	      5.43660657	     -8.49999502	     14.98934145	      0.26161336	      2.32649442	      0.00000000	      0.00000000	     21.25713785	     -5.10830038	      2.36745601	     59.49025654	      1.03830085	     -1.89018896	      0.00000000	      0.00000000	      2.67396198	      2.77989835	     -4.53730716	      0.00000000	      0.00000000	      0.00000000	      0.00000000	      0.00000000	      0.00000000	      0.00000000	      0.00000000	      0.00000000	      0.00000000	      0.00000000	      0.00000000	      0.00000000	      0.00000000
      0.74000000	     -2.17277447	      6.48393003	    -86.26576593	      0.21140543	      0.93460213	     -0.89756317	     16.24633022	      5.49080473	     -8.01269848	     14.44187428	      0.25205826	      2.43299842	     -0.00000000	      0.00000000	     22.28228516	     -4.93174556	      2.35583566	     58.93440640	      1.02859943	     -1.06628385	      0.00000000	      0.00000000	      2.64655255	      2.67576389	     -4.26908846	     -0.00000000	      0.00000000	      0.00000000	      0.00000000	      0.00000000	      0.00000000	     -0.00000000	      0.00000000	     -0.00000000	     -0.00000000	      0.00000000	      0.00000000	      0.00000000	     -0.00000000
      0.75000000	     -2.15052804	      6.56462293	    -86.44531784	      0.21117434	      0.93522008	     -0.89078515	     15.78095567	      5.51394933	     -8.13881685	     14.31795519	      0.24989546	      2.60067826	      0.00000000	      0.00000000	     23.24761557	     -4.84942453	      2.35788445	     58.08264540	      1.01373340	     -0.74759541	      0.00000000	      0.00000000	      2.73266357	      2.69029429	     -4.05503365	      0.00000000	      0.00000000	      0.00000000	      0.00000000	      0.00000000	      0.00000000	      0.00000000	      0.00000000	      0.00000000	      0.00000000	      0.00000000	      0.00000000	      0.00000000	      0.00000000
      0.76000000	     -2.02116695	      6.54303139	    -86.72024969	      0.21084557	      0.93599257	     -0.88402840	     14.89662110	      5.57403952	     -7.54771186	     13.57638983	      0.23695270	      2.64023852	      0.00000000	      0.00000000	     24.04120783	     -4.68378415	      2.24402022	     57.10489202	      0.99666838	     -0.11611020	      0.00000000	      0.00000000	      2.64791375	      2.58224730	     -3.68990943	      0.00000000	      0.00000000	      0.00000000	      0.00000000	      0.00000000	      0.00000000	      0.00000000	      0.00000000	      0.00000000	      0.00000000	      0.00000000	      0.00000000	      0.00000000	      0.00000000
      0.77000000	     -1.92964864	      6.61054454	    -86.93558297	      0.21065064	      0.93650355	     -0.87744958	     14.29126563	      5.57239432	     -7.37367166	     13.17352473	      0.22992138	      2.82216363	      0.00000000	      0.00000000	     24.90094430	     -4.51919634	      2.19091255	     55.96051007	      0.97669515	      0.22140805	      0.00000000	      0.00000000	      2.65821104	      2.50969439	     -3.41943954	      0.00000000	      0.00000000	      0.00000000	      0.00000000	      0.00000000	      0.00000000	      0.00000000	      0.00000000	      0.00000000	      0.00000000	      0.00000000	      0.00000000	      0.00000000	      0.00000000
      0.78000000	     -1.86939947	      6.53002191	    -87.15337963	      0.21043503	      0.93715352	     -0.87074598	     13.47865256	      5.62838410	     -7.14570849	     12.68606318	      0.22141357	      2.87511849	      0.00000000	      0.00000000	     25.51353384	     -4.41761342	      2.09535316	     54.62324451	      0.95335546	      0.44620364	      0.00000000	      0.00000000	      2.51072215	      2.47344337	     -3.12243401	      0.00000000	      0.00000000	      0.00000000	      0.00000000	      0.00000000	      0.00000000	      0.00000000	      0.00000000	      0.00000000	      0.00000000	      0.00000000	      0.00000000	      0.00000000	      0.00000000
